<svg xmlns="http://www.w3.org/2000/svg" viewBox="0 0 155.94 80.55"><path fill="#005395" d="M117.325 44.384c-1.259 4.697-3.47 8.31-6.61 10.824Q106 58.951 99.03 58.951c-4.546 0-7.728-1.285-9.567-3.853-1.82-2.568-2.107-6.136-.88-10.713l5.81-21.685h7.95l-6.135 22.895c-.617 2.303-.541 4.036.235 5.21q1.148 1.762 4.297 1.762c2.202 0 3.964-.57 5.314-1.725 1.367-1.146 2.366-2.898 2.996-5.247l6.134-22.895h7.95zm29.477 13.796h-8.219l-3.031-12.511-9.774 12.511h-8.108l15.478-18.602-5.715-16.878h8.146l3.187 11.52 9.104-11.52h8.072L141.33 39.578zM40.28 0c-.606 0-1.212.018-1.812.042L30.23 22.686h7.175c4.268 0 6.57 3.287 5.107 7.304L32.35 57.91h-8.535l10.91-29.932H28.31L17.403 57.91H8.868l12.82-35.226h.007l7.713-21.198C12.442 6.233 0 21.799 0 40.274c0 19.024 13.194 34.963 30.93 39.179l7.473-20.534h.006L51.59 22.685h15.72c4.274 0 6.57 3.287 5.112 7.304L63.49 54.517c-.676 1.866-2.863 3.393-4.852 3.393H47.312l-8.231 22.626c.402.006.798.014 1.2.014 22.242 0 40.274-18.034 40.274-40.276S62.523 0 40.281 0zm17.56 27.646L48.86 52.29h6.415l8.977-24.644z"/></svg>