<svg xmlns="http://www.w3.org/2000/svg" width="481.7" height="247.93" viewBox="0 0 481.7 247.93"><path fill="#007d24" d="M481.676 123.981c0 68.463-107.83 123.961-240.847 123.961C107.81 247.942-.02 192.444-.02 123.982S107.807.015 240.83.015c133.011 0 240.847 55.504 240.847 123.965"/><path fill="#fff" d="M453.97 123.795c0 59.586-95.378 107.893-213.021 107.893-117.65 0-213.022-48.307-213.022-107.893 0-59.583 95.373-107.888 213.022-107.888 117.647 0 213.021 48.305 213.021 107.888"/><path fill="#bd0600" d="M144.045 123.395h6.77c3.396 0 5.604 1.729 5.083 5.374-.52 3.584-3.083 4.875-7.583 4.875h-5.73zm1.311 21.603c6.792 0 7.459 2.208 6.48 8.959-.646 4.582-.75 7.895-.542 9.04h14.729l.229-1.582c-1.73 0-1.208-2.292-.25-9.042 1.5-10.396-1.146-11.687-5.542-13.708 5.396-1.645 8.417-6.667 9.272-12.625 1.437-10.041-2.772-14.708-17.562-14.708h-20.958l-7.418 51.666h14.563l2.584-18zm27.208-20.097h13.062l-5.478 38.103h14.54l5.48-38.103h13.061l1.94-13.562h-40.667zm77.171 38.101 1.73-12.063h-22.5l1.167-8.103h18.291l1.73-12.042H231.86l1.063-7.395h21.624l1.73-12.063h-36.166l-7.417 51.666zm17.893 0 2.521-17.5.834-8.041.478-7.604h.126l3.312 33.145h10.105l12.833-33.145h.124l-2.083 9.333-1.333 8.02-2.27 15.792h13.061l7.416-51.666H295.19l-12.457 32.229-3.188-32.229h-17.583l-7.416 51.666zm86.172-36.661c.25-9.04-4.313-16.354-16.624-16.354-11.105 0-20.021 5.521-21.605 16.5-2.833 19.728 23.458 14.354 22.333 22.166-.354 2.438-2.958 3.813-6.583 3.813-1.417 0-2.896-.437-3.958-1.292-1.104-.875-1.771-2.23-1.812-4.104h-13.917c-1.042 9.333 5.458 17.292 17.166 17.292 12.209 0 21.603-5.814 23.313-17.792 2.708-18.791-23.5-13.978-22.396-21.729.27-1.874 1.854-2.937 5.063-2.937 1.416 0 2.666.27 3.624.916.958.647 1.584 1.73 1.584 3.521z"/><path fill="#000500" d="m109.312 89.316 1-7.106H97.187l.667-4.77h10.687l.98-7.083H98.833l.604-4.354h12.625l1-7.083H91.958l-4.25 30.396zm3.267 0h7.458l1.521-10.939c.375-2.666 1.124-4.894 3.312-4.894 1.979 0 2.334 1.312 1.896 4.56l-1.584 11.273h7.48l1.52-10.939c.376-2.666 1.125-4.894 3.313-4.894 1.979 0 2.334 1.312 1.896 4.56l-1.584 11.273h7.459l1.833-13.084c.833-6.041-.355-9.688-5.854-9.688-2.771 0-5.104 1.396-7.104 4.063-.563-2.354-2.167-4.063-5.563-4.063-2.686 0-5.333 2.25-6.52 3.939l.458-3.292h-6.853zm47.785-30.4h-7.478l-4.25 30.396h6.708l.438-3.126h.082c.647 2.104 2.126 3.75 5.27 3.75 6.147 0 9.23-5.271 10.147-11.812.937-6.667-1.75-11.584-6.562-11.584-2.23 0-4.084.855-5.834 2.876zm-.479 24.686c-2.458 0-2.75-3-2.417-5.353.334-2.292 1.584-4.896 3.855-4.896 2.396 0 2.792 2.708 2.458 5.063-.333 2.416-1.458 5.186-3.896 5.186m21.505-7.846c.334-2.355 1.812-3.833 4.041-3.833 1.75 0 3.02 1.812 2.75 3.833zm13.645 4.478c1.23-8.02-2.188-13.687-9.145-13.687-6.042 0-11.354 4.646-12.354 11.917-1.042 7.437 3.082 11.478 9.125 11.478 4.374 0 9.374-1.812 11.437-7.29h-7.147c-.728 1.312-1.894 1.937-3.082 1.937-1.979 0-3.479-1.73-3.104-4.355zm22.141 9.082 4.25-30.396h-7.48l-1.48 10.5c-1.27-2.188-2.811-2.876-5.186-2.876-4.5 0-8.646 4.792-9.687 12.125-.875 6.25 1.311 11.27 6.978 11.27 2.417 0 4.167-.874 6.292-3.582l-.416 2.959zm-9.854-5.71c-2.438 0-2.563-2.686-2.23-5.02.334-2.437 1.418-5.229 3.896-5.229s2.812 2.646 2.479 5.104c-.375 2.583-1.563 5.145-4.145 5.145m33.867 5.71 4.25-30.396h-7.48l-1.478 10.5c-1.27-2.188-2.812-2.876-5.188-2.876-4.5 0-8.645 4.792-9.686 12.125-.875 6.25 1.312 11.27 6.978 11.27 2.417 0 4.167-.874 6.292-3.582l-.417 2.959zm-9.853-5.71c-2.438 0-2.563-2.686-2.23-5.02.334-2.437 1.416-5.229 3.896-5.229s2.812 2.646 2.479 5.104c-.375 2.583-1.563 5.145-4.145 5.145m22.092-7.85c.334-2.355 1.812-3.833 4.042-3.833 1.75 0 3.021 1.812 2.75 3.833zm13.645 4.478c1.23-8.02-2.186-13.687-9.145-13.687-6.04 0-11.354 4.646-12.354 11.917-1.041 7.437 3.084 11.478 9.125 11.478 4.375 0 9.375-1.812 11.437-7.29h-7.145c-.73 1.312-1.896 1.937-3.084 1.937-1.979 0-3.479-1.73-3.104-4.355zm22.127 9.082 4.25-30.396h-7.478l-1.479 10.5c-1.27-2.188-2.813-2.876-5.188-2.876-4.5 0-8.645 4.792-9.688 12.125-.874 6.25 1.314 11.27 6.98 11.27 2.416 0 4.167-.874 6.292-3.582l-.417 2.959zm-9.854-5.71c-2.437 0-2.562-2.686-2.229-5.02.334-2.437 1.417-5.229 3.896-5.229s2.813 2.646 2.48 5.104c-.376 2.583-1.563 5.145-4.147 5.145m49.334-24.69h-7.02l-5.71 18.79h-.06l-.292-18.79h-8.188l2.166 30.396h8.355l5.396-17.647h.082l.522 17.647h8.333l10.686-30.396h-8.208l-5.52 18.79h-.083zm19.946 30.4 3.084-22.125h-7.48l-3.082 22.125zm-4-24.959h7.48l.875-6.25h-7.479zm21.333 18.665h-1.187c-2.084 0-2.229-.708-1.937-2.75l1.104-8.02h3.583l.708-5.063h-3.583l.979-6.895h-7.375l-.978 6.895h-2.771l-.71 5.063h2.667l-1.29 9.249c-1.063 7.647.02 8.437 9.915 7.813zm2.627 6.294h7.478l1.584-11.272c.396-2.833 1.23-4.561 3.521-4.561 2.124 0 2.354 1.937 2.042 4.145l-1.626 11.688h7.479l1.854-13.25c.855-6.083-1-9.522-5.958-9.522-2.52 0-4.375 1.188-6.187 3.439l1.542-11.063h-7.479z"/><path d="M151.111 198.943h4.853c1.77-4.437 3.688-8.791 5.543-13.166h-4.75l-2.73 8.021h-.063l-1.937-8.02h-4.896l-2.708 8.02h-.062l-2.104-8.02h-4.771c1.583 4.354 2.937 8.75 4.333 13.165h4.708c.937-2.582 1.917-5.145 2.688-7.729h.063z"/><path d="M175.057 198.943h4.853c1.77-4.437 3.688-8.791 5.543-13.166h-4.75l-2.73 8.021h-.063l-1.937-8.02h-4.896l-2.708 8.02h-.062l-2.104-8.02h-4.77c1.582 4.354 2.936 8.75 4.332 13.165h4.708c.938-2.582 1.917-5.145 2.688-7.729h.063z"/><path d="M199.003 198.943h4.853c1.771-4.437 3.688-8.791 5.543-13.166h-4.75l-2.73 8.021h-.063l-1.937-8.02h-4.896l-2.708 8.02h-.062l-2.104-8.02h-4.77c1.582 4.354 2.936 8.75 4.332 13.165h4.708c.938-2.582 1.918-5.145 2.688-7.729h.063zm14.52 0 .23-4.582h-4.854l-.167 4.582zm8.907-13.166h-4.855c0 5.917-.23 9.541-.52 13.166h5.06c0-3.249.022-5.52.334-6.853.376-1.542 1.522-2.521 3.105-2.521.458 0 .916.145 1.375.27l-.167-4.249c-.333-.105-.708-.125-1.04-.125-1.293 0-2.46.73-3.293 1.687l-.041.042zm15.399 3.459.104-3.459h-2.937l.145-3.458-4.792 1.083-.145 2.375h-2.126l-.145 3.459h1.979c-.083 2.354-.375 4.437-.375 6.52 0 2.813 1.688 3.5 4.208 3.5 1.147 0 2.313-.125 3.437-.417l.647-3.645c-.604.167-1.21.29-1.833.29-1.104 0-1.314-.811-1.314-1.811 0-1.75.104-2.959.188-4.437zm15.479 3.896c.126-.647.188-1.314.188-1.98 0-3.667-2.375-5.687-6.666-5.687-6.98 0-7.543 5.937-7.543 7.333 0 5.187 3.647 6.459 7.834 6.459 1.52 0 3.062-.188 4.562-.5l.625-3.688c-1.458.416-3.04.875-4.582.875-1.73 0-3.439-.75-3.439-2.812zm-8.874-2.396c.124-1.146.916-2.334 2.333-2.334 1.27 0 1.896.792 1.896 2.334zm16.221-4.959h-4.812c-.063 4.396-.333 8.792-.584 13.166h5.125c.063-2.311 0-4.729.334-7.02.145-1.105.52-2.605 1.896-2.605 1.104 0 1.333.939 1.333 1.876 0 .5-.292 6.041-.48 7.75h5.125c.125-2.396 0-4.854.375-7.23.146-1.062.604-2.396 1.876-2.396 1.166 0 1.312 1.022 1.312 1.98 0 1.396-.312 6.479-.418 7.645h5.106c.104-4.229.457-9.229.457-9.915 0-2.604-1.957-3.563-4.29-3.563-1.793 0-3.314.5-4.314 2.083-.792-1.583-2.23-2.083-3.916-2.083-1.75 0-3.188.563-4.146 1.937l-.042.063zm29.665.125c-1.5-.229-3.02-.437-4.52-.437-3.708 0-5.29 1.541-5.29 3.73 0 3.103 4.562 4.582 4.562 5.811 0 .77-1.126.792-1.71.792-1.29 0-2.604-.48-3.812-.937l.396 3.812c1.52.333 3.083.584 4.646.584 2.333 0 5.625-.896 5.625-3.792 0-3.417-4.563-4.459-4.563-5.896 0-.645 1.167-.645 1.812-.645 1.147 0 2.147.228 3.063.604zm7.84 13.041.23-4.582h-4.855l-.166 4.582zm11.107-13.478c-4.396 0-7.937 2.541-7.937 7.187 0 2.062 1.187 6.605 7.686 6.605 4.418 0 7.814-2.48 7.814-7.147 0-4.437-3.48-6.645-7.563-6.645m-.041 3.687c1.708 0 2.457 1.354 2.457 2.896 0 1.666-.77 3.52-2.73 3.52-1.749 0-2.478-1.458-2.478-2.958 0-1.708.812-3.458 2.75-3.458m14.922-3.375h-4.855c0 5.917-.23 9.541-.52 13.166h5.063c0-3.249.02-5.52.333-6.853.375-1.542 1.52-2.521 3.104-2.521.457 0 .916.145 1.375.27l-.167-4.249c-.333-.105-.708-.125-1.041-.125-1.292 0-2.459.73-3.292 1.687l-.042.042zm6.426 18.583c2.188.52 4.439.834 6.667.834 4.625 0 6.354-1.98 6.438-5.084.104-4.833.29-9.374.687-13.937-2.104-.396-4.23-.708-6.396-.708-6.083 0-9 3.292-9 7.75 0 3.27 2.084 5.854 5.459 5.854 1.77 0 3.104-.584 4.354-1.792-.021 2.458-.313 4.333-3.27 4.333-1.75 0-3.5-.459-5.147-1.02zm8.605-14.999c-.042 2.333-.105 6.124-3.02 6.124-1.438 0-2.189-1.25-2.189-2.561 0-2.292 1.543-3.688 3.792-3.688.479 0 .959.041 1.417.125"/><path fill="#bd0600" d="M361.146 117.275h-.416c-.73 0-.792-.25-.75-.896l.228-2.583h1.25l.146-1.646h-1.25l.188-2.208h-2.563l-.188 2.208h-.978l-.146 1.646h.938l-.251 2.979c-.23 2.458.167 2.73 3.604 2.521zm.986 2.026h2.604l.314-3.52c.082-.875.292-1.583 1.062-1.583.687 0 .834.416.73 1.457l-.314 3.646h2.604l.314-3.52c.082-.875.29-1.583 1.062-1.583.687 0 .834.416.728 1.457l-.312 3.646h2.604l.375-4.229c.166-1.937-.334-3.125-2.25-3.125-.958 0-1.75.459-2.395 1.313-.23-.75-.834-1.313-2-1.313-.938 0-1.834.73-2.188 1.27l.084-1.062h-2.396z"/></svg>