<svg xmlns="http://www.w3.org/2000/svg" width="1034" height="780" viewBox="0 0 1034 780"><path fill="#008cdb" d="M556 176c1.32.76 1.32.76 2.67 1.54 5 2.89 9.98 5.8 14.96 8.72 6.39 3.76 12.82 7.47 19.25 11.18 1.07.62 2.15 1.24 3.26 1.88 3.29 1.89 6.57 3.79 9.86 5.68 13.67 7.87 27.33 15.76 40.95 23.72 6.36 3.72 12.74 7.41 19.12 11.09 3.3 1.9 6.59 3.8 9.89 5.71 3.72 2.14 7.44 4.28 11.18 6.4 15.49 8.86 26.92 19.17 32.44 36.68 2.17 8.19 1.85 16.47 1.82 24.88.01 1.86.02 3.71.02 5.56.02 5.01.02 10.01.02 15.01-.01 4.19 0 8.38 0 12.57.02 9.89.02 19.78.01 29.67-.02 10.18 0 20.36.03 30.53.02 8.76.02 17.53.02 26.29 0 5.22 0 10.44.01 15.66.02 4.92.02 9.83 0 14.74-.01 1.8 0 3.59.01 5.39.09 17.76-3.58 33.64-16.24 46.91-6.82 6.54-15.33 11.1-23.51 15.7-1.83 1.02-3.65 2.05-5.47 3.09-1.9 1.07-3.8 2.15-5.7 3.22-6.26 3.55-12.5 7.14-18.72 10.74-1.07.62-2.13 1.23-3.23 1.87-3.22 1.85-6.43 3.71-9.65 5.57-12.77 7.38-25.54 14.74-38.35 22.05a3274 3274 0 0 0-28.21 16.26c-.98.57-1.96 1.14-2.97 1.73-4.6 2.69-9.19 5.39-13.76 8.14-8.31 4.96-16.2 9.54-25.71 11.82-.77.19-1.55.38-2.35.57-23.45 3.8-41.32-7.45-60.61-18.98-6.27-3.74-12.59-7.39-18.92-11.03-8.39-4.83-16.76-9.67-25.12-14.56-8.28-4.84-16.57-9.65-24.88-14.44-1.61-.93-1.61-.93-3.26-1.88-5.5-3.17-11-6.34-16.51-9.5-5.41-3.12-10.82-6.24-16.22-9.37-3.09-1.79-6.2-3.56-9.3-5.33-18.92-10.85-18.92-10.85-25.83-18.48-.65-.7-1.29-1.41-1.96-2.13-11.33-13.36-12.34-28.99-12.31-45.67-.01-1.8-.01-3.6-.02-5.41-.01-4.87-.01-9.75-.01-14.63 0-4.08-.01-8.17-.01-12.25-.01-9.64-.01-19.28-.01-28.92.01-9.91 0-19.83-.02-29.75-.02-8.54-.03-17.07-.02-25.61 0-5.09 0-10.18-.02-15.27q-.015-7.185 0-14.37c.01-1.75 0-3.5 0-5.25-.09-19.36 3.39-34.54 16.68-49.33 7.42-6.64 16.07-11.52 24.7-16.41 1.72-.99 3.45-1.97 5.17-2.96 1.77-1.01 3.55-2.02 5.32-3.04 5.52-3.14 11.01-6.32 16.51-9.5 2.16-1.25 4.33-2.5 6.49-3.75 1.61-.92 1.61-.92 3.25-1.87 3.28-1.89 6.55-3.78 9.83-5.67 11.48-6.61 22.94-13.25 34.38-19.93 8.54-4.99 17.09-9.94 25.66-14.86 4.96-2.86 9.91-5.72 14.83-8.63 28.78-17.02 51.5-18.7 80.56-1.79"/><path fill="#f8fcfe" d="M559.3 353.68c7.54 6.82 13.18 17.56 13.86 27.75.05 2.75.07 5.5.09 8.26l.06 2.86c.05 8.37-1.25 16.32-6.25 23.26-.53.74-1.06 1.47-1.6 2.23-.48.65-.96 1.29-1.46 1.96-.6.89-1.2 1.77-1.81 2.69-7.64 8.07-17.76 12.3-28.76 12.6-13.02.13-22.59-3.45-32.43-12.29-9.15-10.08-11.34-20.82-11.5-34.06l-.06-3.05c.09-10.87 3.38-19.74 10.56-27.89.52-.62 1.05-1.23 1.59-1.87 15.35-16.8 40.39-15.1 57.71-2.45m-49.8 9.7c-8.06 10.71-8.41 21.65-7.5 34.62 1.49 9.74 5.47 16.64 13 23 6.88 4.94 14.82 4.92 23 4 7.62-1.92 14.35-6.85 18.57-13.46 5.59-10.65 6.41-24.54 3.52-36.2-3.79-9.6-8.48-15.06-17.82-19.39-11.59-4.83-24.26-1.88-32.77 7.43m107.875-18.755 2.53.03c11.57.29 19.21 3.46 27.41 11.66 2.8 4.47 4.68 9.38 4.68 14.69h-12c-.37-1.41-.74-2.81-1.12-4.26-1.17-3.49-1.77-4.65-4.62-7.18-8.35-4.02-17.79-5.33-26.76-2.38-3.75 1.95-5.51 3.09-7.5 6.82-.78 4.01-.44 7.02 1.26 10.74 5.8 4.76 13.52 5.98 20.7 7.7 22.38 5.36 22.38 5.36 29.04 13.56 3.9 6.51 3.87 12.59 3 20-2.17 6.94-6.7 11.53-13 15-10.52 5.1-23.18 5.81-34.5 2.87-9.64-3.53-15.97-9.46-20.87-18.37-.89-3.57-.75-6.83-.63-10.5h11c.62 2.07.62 2.07 1.26 4.18 1.91 5.6 4.12 9.18 9.37 12.13 4.75 1.93 9.37 2.11 14.44 2.19 1.13.02 1.13.02 2.29.05 5.6-.06 9.98-1.41 14.64-4.55 2.92-3.29 3.9-5.22 4.5-9.57-.59-4.09-1.68-5.46-4.5-8.43-6.52-3.64-14.08-5.33-21.27-7.19-22.13-5.73-22.13-5.73-27.73-14.81-2.74-6-3.27-12.2-1.16-18.51 3.88-7.7 9.97-12.03 17.95-14.89 3.85-1.05 7.62-1.05 11.59-.98"/><path fill="#f5fafd" d="M383 371h52c0 12.32 0 12.32-4.25 16.69-.92.99-1.84 1.99-2.75 2.99-.49.53-.97 1.06-1.48 1.6-2.79 3.16-5.26 6.57-7.77 9.97-.48.65-.96 1.3-1.46 1.97-1.43 1.92-2.86 3.85-4.29 5.78l-6 8c13.86.5 13.86.5 28 1v14h-55c0-10.12 0-10.12 2.42-12.82.53-.61 1.05-1.22 1.59-1.85.86-.94.86-.94 1.74-1.89 1.19-1.38 2.39-2.77 3.57-4.15.61-.7 1.22-1.41 1.85-2.13 2.96-3.5 5.68-7.16 8.39-10.85.96-1.29 1.92-2.59 2.88-3.88.4-.55.8-1.09 1.21-1.65 1.74-2.29 3.55-4.53 5.35-6.78-12.87-.5-12.87-.5-26-1zm92-25h8c-1.37 7.63-3.32 15.01-5.48 22.45l-1.03 3.57-3.24 11.23-4.23 14.7c-.52 1.78-.52 1.78-1.04 3.6-3.1 10.79-6.06 21.61-8.98 32.45h-9c.67-6.21 2.33-11.96 4.12-17.94l1.92-6.46.99-3.33c1.51-5.08 2.99-10.18 4.47-15.27.58-1.98 1.16-3.96 1.73-5.94 1.23-4.2 2.45-8.39 3.66-12.59.31-1.07.62-2.14.94-3.25q.9-3.06 1.77-6.12c1.67-5.74 3.46-11.44 5.4-17.1"/></svg>